PathFileType	4	(X/Y/Z)	pose_F01_0-96.trc
DataRate	CameraRate	NumFrames	NumMarkers	Units	OrigDataRate	OrigDataStartFrame	OrigNumFrames
30	30	7	21	m	30	84	96
Frame#	Time	CHip			RHip			RKnee			RAnkle			RBigToe			RSmallToe			RHeel			LHip			LKnee			LAnkle			LBigToe			LSmallToe			LHeel			Neck			Nose			RShoulder			RElbow			RWrist			LShoulder			LElbow			LWrist			
		X1	Y1	Z1	X2	Y2	Z2	X3	Y3	Z3	X4	Y4	Z4	X5	Y5	Z5	X6	Y6	Z6	X7	Y7	Z7	X8	Y8	Z8	X9	Y9	Z9	X10	Y10	Z10	X11	Y11	Z11	X12	Y12	Z12	X13	Y13	Z13	X14	Y14	Z14	X15	Y15	Z15	X16	Y16	Z16	X17	Y17	Z17	X18	Y18	Z18	X19	Y19	Z19	X20	Y20	Z20	X21	Y21	Z21	
84	2.8	-0.28041826918575635	1.8791016127531985	-0.49407376091660593	-0.29683854414301314	1.8770848854439004	-0.43581391520706997	-0.3005422629069747	1.7236077029463914	-0.4329685297718557													-0.26198833226109536	1.8837652621639194	-0.5576654485643018	-0.24598368040259036	1.7385317248941363	-0.616001590282834	-0.22796781522953452	1.5974704902992154	-0.6941933643332853	-0.20177484642982757	1.5633171867134759	-0.690935630515718	-0.19661178978400237	1.571705147092647	-0.7183860712581216	-0.23460366558817056	1.5879541294081374	-0.6912621302861147	-0.2812499059058056	2.049224086011164	-0.49325239061483556	-0.27618580728073755	2.1245745196453028	-0.45818104166666634	-0.30505425341332365	2.0419838804652906	-0.4048954665338026	-0.3164523405479888	2.005735461395199	-0.2552248589240155	-0.31301591862176875	2.070241339644069	-0.32581196107004945	-0.2586336048837856	2.0581204026218978	-0.5774694032435727	-0.24111068180990838	1.973259794030342	-0.6273097623426298	-0.22157555416883865	1.894498628158426	-0.6309113797609831
85	2.8333333333333335	-0.2813590428437875	1.8792558688952263	-0.4971701461951919	-0.296832660297495	1.877118451506717	-0.43587828535599904	-0.3005422629069747	1.7236077029463914	-0.4329685297718557													-0.2628903109130148	1.8838437877891212	-0.5607837588370743	-0.24788201430638462	1.7438204222304203	-0.6142861292704448	-0.22725222240366982	1.5963721607238581	-0.6950668848919932	-0.2022410205692477	1.5631555830053254	-0.6927131352068837	-0.19710800476587378	1.571827768660563	-0.7200947399329048	-0.23412589737445189	1.5877952048216133	-0.6922055753867788	-0.28120328889307905	2.0492965927623708	-0.4932332964310074	-0.2780304671387543	2.1204493015105865	-0.44653317927207775	-0.30498843223850464	2.040524654520306	-0.40438299192953886	-0.31200705818997315	2.000118417026972	-0.2689597820939427	-0.31216635336446874	2.0613957450680256	-0.321177182919748	-0.2586798867688554	2.0556205515707107	-0.5771036463619942	-0.24023045012529315	1.9720847219634774	-0.6238683527380828	-0.22193836699937589	1.8929898124960804	-0.6305500821429653
86	2.8666666666666667	-0.2812309148352656	1.8784179667139405	-0.4970891577398149	-0.29657944047446017	1.874680669811752	-0.43563834507593263	-0.3005422629069747	1.7236077029463914	-0.4329685297718557													-0.26454743314283174	1.885027256248416	-0.5587194021957141	-0.24539230192948497	1.7388503701246625	-0.6123795452926047	-0.22653662957780513	1.5952738311485009	-0.6959404054507011	-0.20270719470866783	1.562993979297175	-0.6944906398980495	-0.1976042197477452	1.5719503902284793	-0.7218034086076881	-0.2336481291607332	1.5876362802350894	-0.693149020487443	-0.28298139666745886	2.046731775916273	-0.49011315473437056	-0.2807142399098479	2.1147357719388604	-0.4299979018905887	-0.30608100614880085	2.038094931936965	-0.4070180071939525	-0.31519553741970585	1.9893589137206675	-0.2820403327195886	-0.30905236202232844	2.055595860321791	-0.3176387608798358	-0.25868466920018973	2.054315574631023	-0.5765209253095084	-0.24430493504374273	1.9704170168594803	-0.6191568203397206	-0.22375367232163898	1.8905423572835198	-0.6279292849341555
87	2.9	-0.2810631163609386	1.8796412314589803	-0.4972108932792145	-0.2963514205190587	1.876093396116053	-0.4358149399188747	-0.3005422629069747	1.7236077029463914	-0.4329685297718557													-0.2645142300956567	1.8834254282363934	-0.5584770079067417	-0.24718352256164977	1.7415396862959052	-0.6107032098056577	-0.22750733819616553	1.5962355870479297	-0.6948084389196754	-0.20317336884808798	1.5628323755890248	-0.6962681445892152	-0.1981004347296166	1.5720730117963955	-0.7235120772824715	-0.2344178632397368	1.5877940585305683	-0.692046125070336	-0.2811851225355437	2.04408384240812	-0.49189306035979874	-0.28461671512803294	2.104657972949545	-0.4163879040607406	-0.30455571261494924	2.036629908167312	-0.4170159660882173	-0.31486612269507397	1.976995513673173	-0.2989267616912696	-0.31105109248533586	2.047646721697097	-0.3139892185958838	-0.2587837915692559	2.0530647806473805	-0.5765201150007729	-0.24462529501787011	1.9679033599559759	-0.6190717232806244	-0.22836011463839362	1.8880100677098413	-0.6231816261505974
88	2.933333333333333	-0.2853777961735639	1.8777147676913597	-0.49276356921993136	-0.29969584134137267	1.873306551742301	-0.4365525358823809	-0.3005422629069747	1.7236077029463914	-0.4329685297718557													-0.26971603264051297	1.8818078709266117	-0.5571692112915747	-0.24757245911539272	1.7383657775314783	-0.610057970837027	-0.22847804681452594	1.5971973429473585	-0.6936764723886497	-0.2036395429875081	1.5626707718808743	-0.6980456492803808	-0.19859664971148802	1.5721956333643115	-0.7252207459572547	-0.23518759731874037	1.5879518368260472	-0.6909432296532291	-0.28321006854529307	2.0414194553408387	-0.48924660291638505	-0.2862970383469998	2.0989697196667882	-0.4042951996587292	-0.30543125599621895	2.035728620827716	-0.41178371783199547	-0.31299260972804427	1.9668183850660859	-0.3269985319210208	-0.31254440841845854	2.0413750713998957	-0.30264717138537134	-0.2598661891808273	2.050609621663574	-0.5710051148324568	-0.2445903080356156	1.9636391236652755	-0.6183003915070614	-0.23275917511061317	1.8804855883136287	-0.6177507765767353
89	2.966666666666667	-0.28532455695773956	1.8770410602938845	-0.49237485246503765	-0.2986102317489191	1.8726475879628037	-0.433047292014336	-0.3005422629069747	1.7236077029463914	-0.4329685297718557													-0.2688202940693218	1.8824282639613994	-0.5539349722255468	-0.2479355234448727	1.7337370906930079	-0.6134762452084789	-0.22826237515664854	1.598051233931619	-0.6928700875626836	-0.20363957723971388	1.563051054409683	-0.6958483284475577	-0.1985894490428734	1.5725269616006454	-0.7230315472591609	-0.2351012035097672	1.5883413789503846	-0.6909288523255973	-0.28515440571210765	2.0414463320164593	-0.48720887550187686	-0.28535300898138644	2.0952065201560894	-0.4006549911242019	-0.30846364185415864	2.033488320367801	-0.41259173361917945	-0.3131143024468289	1.9522006970801435	-0.3605471481334914	-0.3170422593504999	2.006344751976305	-0.2915983655085088	-0.25894606400852094	2.050709134349274	-0.5677339859209553	-1.4672031123333775	1.8677201473462417	0.6715992820765823	-0.2337957061955047	1.8796030660177476	-0.6117739791658025
90	3.0	-0.285585219744743	1.8770102421902095	-0.49249532552538605	-0.2999407134101275	1.8722325677365563	-0.4363246646652971	-0.3005422629069747	1.7236077029463914	-0.4329685297718557													-0.26894760279594426	1.8809094045940675	-0.5537890569309905	-0.24789069867338215	1.7336449848924114	-0.6135544004975394	-0.22804670349877118	1.5989051249158797	-0.6920637027367176	-0.20363961149191961	1.5634313369384913	-0.6936510076147346	-0.1985822483742588	1.5728582898369794	-0.7208423485610669	-0.23501480970079403	1.5887309210747222	-0.6909144749979655	-0.2853618601047058	2.040112894953915	-0.48727544658770694	-0.2834877670293868	2.0938746851782377	-0.40203786263459296	-0.30885050849870194	2.032345884848008	-0.41324961825517936	-0.31635948968755123	1.947041011441109	-0.3833796999976135	-0.3164411149146642	1.9693989109589192	-0.2730346119525929	-0.2589014240842458	2.0495243757780597	-0.5671630883356765	-1.4769061223946902	1.8706379210657589	0.6878101354773418	-0.2362872581807882	1.8791101944334025	-0.609502581232963
